<svg width="209" height="180" viewBox="0 0 209 180" fill="none" xmlns="http://www.w3.org/2000/svg">
<circle cx="3.15517" cy="78.8793" r="3.15517" fill="#00B2FF"/>
<circle cx="28.3964" cy="78.8793" r="3.15517" fill="#00B2FF"/>
<circle cx="53.6381" cy="78.8793" r="3.15517" fill="#00B2FF"/>
<circle cx="78.8793" cy="78.8793" r="3.15517" fill="#00B2FF"/>
<circle cx="104.121" cy="78.8793" r="3.15517" fill="#00B2FF"/>
<circle cx="129.362" cy="78.8793" r="3.15517" fill="#00B2FF"/>
<circle cx="154.603" cy="78.8793" r="3.15517" fill="#00B2FF"/>
<circle cx="179.845" cy="78.8793" r="3.15517" fill="#00B2FF"/>
<circle cx="205.086" cy="78.8793" r="3.15517" fill="#00B2FF"/>
<circle cx="3.15517" cy="53.6378" r="3.15517" fill="#00B2FF"/>
<circle cx="28.3964" cy="53.6378" r="3.15517" fill="#00B2FF"/>
<circle cx="53.6381" cy="53.6378" r="3.15517" fill="#00B2FF"/>
<circle cx="78.8793" cy="53.6378" r="3.15517" fill="#00B2FF"/>
<circle cx="104.121" cy="53.6378" r="3.15517" fill="#00B2FF"/>
<circle cx="129.362" cy="53.6378" r="3.15517" fill="#00B2FF"/>
<circle cx="154.603" cy="53.6378" r="3.15517" fill="#00B2FF"/>
<circle cx="179.845" cy="53.6378" r="3.15517" fill="#00B2FF"/>
<circle cx="205.086" cy="53.6378" r="3.15517" fill="#00B2FF"/>
<circle cx="3.15517" cy="28.3966" r="3.15517" fill="#00B2FF"/>
<circle cx="28.3964" cy="28.3966" r="3.15517" fill="#00B2FF"/>
<circle cx="53.6381" cy="28.3966" r="3.15517" fill="#00B2FF"/>
<circle cx="78.8793" cy="28.3966" r="3.15517" fill="#00B2FF"/>
<circle cx="104.121" cy="28.3966" r="3.15517" fill="#00B2FF"/>
<circle cx="129.362" cy="28.3966" r="3.15517" fill="#00B2FF"/>
<circle cx="154.603" cy="28.3966" r="3.15517" fill="#00B2FF"/>
<circle cx="179.845" cy="28.3966" r="3.15517" fill="#00B2FF"/>
<circle cx="205.086" cy="28.3966" r="3.15517" fill="#00B2FF"/>
<circle cx="3.15517" cy="3.15517" r="3.15517" fill="#00B2FF"/>
<circle cx="28.3964" cy="3.15517" r="3.15517" fill="#00B2FF"/>
<circle cx="53.6381" cy="3.15517" r="3.15517" fill="#00B2FF"/>
<circle cx="78.8793" cy="3.15517" r="3.15517" fill="#00B2FF"/>
<circle cx="104.121" cy="3.15517" r="3.15517" fill="#00B2FF"/>
<circle cx="129.362" cy="3.15517" r="3.15517" fill="#00B2FF"/>
<circle cx="154.603" cy="3.15517" r="3.15517" fill="#00B2FF"/>
<circle cx="179.845" cy="3.15517" r="3.15517" fill="#00B2FF"/>
<circle cx="205.086" cy="3.15517" r="3.15517" fill="#00B2FF"/>
<circle cx="3.15517" cy="175.914" r="3.15517" fill="#00B2FF"/>
<circle cx="28.3964" cy="175.914" r="3.15517" fill="#00B2FF"/>
<circle cx="53.6381" cy="175.914" r="3.15517" fill="#00B2FF"/>
<circle cx="78.8793" cy="175.914" r="3.15517" fill="#00B2FF"/>
<circle cx="104.121" cy="175.914" r="3.15517" fill="#00B2FF"/>
<circle cx="129.362" cy="175.914" r="3.15517" fill="#00B2FF"/>
<circle cx="154.603" cy="175.914" r="3.15517" fill="#00B2FF"/>
<circle cx="179.845" cy="175.914" r="3.15517" fill="#00B2FF"/>
<circle cx="205.086" cy="175.914" r="3.15517" fill="#00B2FF"/>
<circle cx="3.15517" cy="150.672" r="3.15517" fill="#00B2FF"/>
<circle cx="28.3964" cy="150.672" r="3.15517" fill="#00B2FF"/>
<circle cx="53.6381" cy="150.672" r="3.15517" fill="#00B2FF"/>
<circle cx="78.8793" cy="150.672" r="3.15517" fill="#00B2FF"/>
<circle cx="104.121" cy="150.672" r="3.15517" fill="#00B2FF"/>
<circle cx="129.362" cy="150.672" r="3.15517" fill="#00B2FF"/>
<circle cx="154.603" cy="150.672" r="3.15517" fill="#00B2FF"/>
<circle cx="179.845" cy="150.672" r="3.15517" fill="#00B2FF"/>
<circle cx="205.086" cy="150.672" r="3.15517" fill="#00B2FF"/>
<circle cx="3.15517" cy="125.431" r="3.15517" fill="#00B2FF"/>
<circle cx="28.3964" cy="125.431" r="3.15517" fill="#00B2FF"/>
<circle cx="53.6381" cy="125.431" r="3.15517" fill="#00B2FF"/>
<circle cx="78.8793" cy="125.431" r="3.15517" fill="#00B2FF"/>
<circle cx="104.121" cy="125.431" r="3.15517" fill="#00B2FF"/>
<circle cx="129.362" cy="125.431" r="3.15517" fill="#00B2FF"/>
<circle cx="154.603" cy="125.431" r="3.15517" fill="#00B2FF"/>
<circle cx="179.845" cy="125.431" r="3.15517" fill="#00B2FF"/>
<circle cx="205.086" cy="125.431" r="3.15517" fill="#00B2FF"/>
<circle cx="3.15517" cy="100.19" r="3.15517" fill="#00B2FF"/>
<circle cx="28.3964" cy="100.19" r="3.15517" fill="#00B2FF"/>
<circle cx="53.6381" cy="100.19" r="3.15517" fill="#00B2FF"/>
<circle cx="78.8793" cy="100.19" r="3.15517" fill="#00B2FF"/>
<circle cx="104.121" cy="100.19" r="3.15517" fill="#00B2FF"/>
<circle cx="129.362" cy="100.19" r="3.15517" fill="#00B2FF"/>
<circle cx="154.603" cy="100.19" r="3.15517" fill="#00B2FF"/>
<circle cx="179.845" cy="100.19" r="3.15517" fill="#00B2FF"/>
<circle cx="205.086" cy="100.19" r="3.15517" fill="#00B2FF"/>
</svg>
