<svg height="512pt" viewBox="0 -33 512.001 512" width="512pt" xmlns="http://www.w3.org/2000/svg"><path d="m333.40625 414.273438c0 16.96875-34.589844 30.726562-77.261719 30.726562s-77.265625-13.757812-77.265625-30.726562 34.59375-43.441407 77.265625-43.441407 77.261719 26.472657 77.261719 43.441407zm0 0" fill="#6d6670"/><path d="m256.144531 370.832031c-5.292969 0-10.460937.410157-15.453125 1.15625 35.265625 5.265625 61.8125 27.417969 61.8125 42.285157 0 14.867187-26.546875 27.265624-61.8125 30.113281 4.992188.402343 10.160156.613281 15.453125.613281 42.671875 0 77.261719-13.757812 77.261719-30.726562s-34.589844-43.441407-77.261719-43.441407zm0 0" fill="#5b545f"/><path d="m256 391.433594c-8.535156 0-15.453125-6.917969-15.453125-15.449219v-291.515625h30.90625v291.515625c0 8.53125-6.917969 15.449219-15.453125 15.449219zm0 0" fill="#5b545f"/><path d="m512 70.042969v30.910156c0 38.679687-114.617188 70.042969-256 70.042969s-256-31.363282-256-70.042969v-30.910156zm0 0" fill="#6d6670"/><path d="m481.09375 70.042969v30.910156c0 37.257813-106.359375 67.730469-240.546875 69.917969 5.113281.082031 10.265625.125 15.453125.125 141.382812 0 256-31.363282 256-70.042969v-30.910156zm0 0" fill="#5b545f"/><path d="m512 70.042969c0-38.683594-114.613281-70.042969-256-70.042969s-256 31.359375-256 70.042969c0 38.683593 114.613281 70.042969 256 70.042969s256-31.359376 256-70.042969zm0 0" fill="#bdf9ff"/><path d="m256 0c-5.1875 0-10.339844.0429688-15.453125.125 134.191406 2.1875 240.546875 32.652344 240.546875 69.917969 0 37.261719-106.355469 67.730469-240.546875 69.917969 5.113281.082031 10.265625.125 15.453125.125 141.386719 0 256-31.359376 256-70.042969 0-38.683594-114.613281-70.042969-256-70.042969zm0 0" fill="#8cf2ff"/></svg>